<svg width="24" height="24" viewBox="0 0 24 24" fill="none" xmlns="http://www.w3.org/2000/svg">
<path d="M6.19325 12C6.19325 10.9129 6.4584 9.92188 6.98869 9.02699C7.51899 8.1321 8.23158 7.41951 9.12645 6.8892C10.0213 6.3589 11.0123 6.09375 12.0994 6.09375C13.0407 6.09375 13.9091 6.29593 14.7045 6.70028C15.5066 7.10464 16.1695 7.65814 16.6931 8.3608C17.2168 9.05682 17.5416 9.84564 17.6675 10.7273H15.2613C15.1288 10.0445 14.7609 9.48769 14.1576 9.05682C13.5544 8.61932 12.8684 8.40057 12.0994 8.40057C11.4366 8.40057 10.8333 8.56297 10.2898 8.88778C9.74624 9.21259 9.31206 9.64678 8.98725 10.1903C8.66244 10.7339 8.50004 11.3371 8.50004 12C8.50004 12.6629 8.66244 13.2661 8.98725 13.8097C9.31206 14.3532 9.74624 14.7874 10.2898 15.1122C10.8333 15.437 11.4366 15.5994 12.0994 15.5994C12.8684 15.5994 13.518 15.384 14.0483 14.9531C14.5852 14.5156 14.9233 13.9555 15.0625 13.2727H17.4687C17.3427 14.1544 17.0345 14.9465 16.544 15.6491C16.0535 16.3452 15.4237 16.8954 14.6548 17.2997C13.8925 17.7041 13.0407 17.9062 12.0994 17.9062C11.0123 17.9062 10.0213 17.6411 9.12645 17.1108C8.23158 16.5805 7.51899 15.8679 6.98869 14.973C6.4584 14.0781 6.19325 13.0871 6.19325 12ZM12 22.5C10.5549 22.5 9.19605 22.2282 7.92334 21.6847C6.65726 21.1411 5.54032 20.3887 4.57253 19.4276C3.61136 18.4598 2.85569 17.3428 2.30551 16.0767C1.76195 14.8106 1.49349 13.4517 1.50012 12C1.50675 10.5483 1.78184 9.18939 2.32539 7.92329C2.87558 6.6572 3.63125 5.54356 4.59241 4.58239C5.55358 3.61458 6.6672 2.8589 7.93328 2.31534C9.19937 1.77178 10.5549 1.5 12 1.5C13.4517 1.5 14.8106 1.77178 16.0767 2.31534C17.3494 2.8589 18.463 3.61458 19.4175 4.58239C20.3787 5.54356 21.1311 6.6572 21.6746 7.92329C22.2182 9.18939 22.4933 10.5483 22.4999 12C22.5065 13.4517 22.238 14.8106 21.6945 16.0767C21.1509 17.3428 20.3986 18.4598 19.4374 19.4276C18.4763 20.3887 17.3593 21.1411 16.0866 21.6847C14.8139 22.2282 13.4517 22.5 12 22.5ZM12 20.1932C13.1335 20.1932 14.1974 19.9811 15.1917 19.5568C16.186 19.1326 17.0577 18.5459 17.8068 17.7969C18.5558 17.0478 19.1424 16.1795 19.5667 15.1918C19.9909 14.1974 20.1997 13.1368 20.1931 12.0099C20.1865 10.8764 19.971 9.8125 19.5468 8.81818C19.1226 7.82386 18.5359 6.95218 17.7869 6.20312C17.0378 5.45407 16.1695 4.86742 15.1818 4.44318C14.1941 4.01894 13.1335 3.80682 12 3.80682C10.8731 3.80682 9.81584 4.01894 8.82816 4.44318C7.84048 4.86742 6.97212 5.45739 6.22308 6.21307C5.47403 6.96212 4.88408 7.83381 4.45321 8.82812C4.02897 9.81581 3.81354 10.8764 3.80691 12.0099C3.80028 13.1302 4.00909 14.1875 4.43332 15.1818C4.85756 16.1695 5.4442 17.0379 6.19325 17.7869C6.94892 18.536 7.8206 19.1259 8.80827 19.5568C9.80258 19.9811 10.8665 20.1932 12 20.1932Z" fill="white"/>
</svg>
